<?xml version="1.0" encoding="utf-8"?>
<!-- Generator: Adobe Illustrator 27.1.0, SVG Export Plug-In . SVG Version: 6.00 Build 0)  -->
<svg version="1.1" id="Layer_1" xmlns="http://www.w3.org/2000/svg" xmlns:xlink="http://www.w3.org/1999/xlink" x="0px" y="0px"
	 viewBox="0 0 1920 1080" style="enable-background:new 0 0 1920 1080;" xml:space="preserve">
<style type="text/css">
	.st0{fill:#FFFFFF;stroke:#000000;stroke-miterlimit:10;}
	.st1{fill:#90CAF9;}
	.st2{fill:none;stroke:#000000;stroke-width:0.25;stroke-miterlimit:10;}
	.st3{font-family:'Calibri-Bold';}
	.st4{font-size:54.8427px;}
</style>
<rect x="776.4" y="390.9" class="st0" width="110" height="110"/>
<g id="Layer_5">
	<path class="st1" d="M838.7,413.1c-21.9,0-39.6,17.8-39.6,39.6c0,6.6,1.6,12.8,4.5,18.3l-4.5,20.6c1.4,1.5,1.4,1.5,1.4,1.5
		l20.5-4.9l0,0c5.3,2.7,11.4,4.2,17.8,4.2c21.9,0,39.6-17.8,39.6-39.6S860.6,413.1,838.7,413.1z"/>
</g>
<g id="Layer_2_00000141430853874808256830000012981537363361075350_">
	<path d="M860.9,475.8c0,0.3,0,0.6-0.1,1c-1.2,1.1-2.4,2.2-3.7,3.1c-7.6,5.8-17.1,9.2-27.4,9.2c-7.2,0-14.1-1.7-20.1-4.7v0
		l-19.4,4.7l-5.7-4.9l5.1-19.4c-3.3-6.2-5.1-13.3-5.1-20.9c0-5.3,0.9-10.4,2.6-15.2c0.6-1.6,1.2-3.1,2-4.6c0.6-0.3,1.3-0.5,2-0.5
		c2.1,0,3.8,1.5,4.1,3.6c-0.6,1.2-1.2,2.5-1.6,3.9c-1.5,4-2.2,8.4-2.2,13c0,7.1,2,13.8,5.3,19.5l-4.6,18.2l18.2-4.6
		c5.7,3.4,12.4,5.3,19.5,5.3c8.7,0,16.7-2.9,23.2-7.8c1.2-0.9,2.3-1.8,3.3-2.9c0.2,0,0.4,0,0.6,0C859,471.7,860.9,473.5,860.9,475.8
		z"/>
	<path d="M874.9,444c0,5.2-0.9,10.1-2.5,14.8v0c-0.5,1.6-1.2,3.1-1.9,4.6c-0.6,0.4-1.3,0.6-2.1,0.6c-2,0-3.8-1.5-4.1-3.5
		c0.6-1.3,1.2-2.6,1.6-3.9c1.4-3.9,2.1-8.2,2.1-12.6c0-21.2-17.2-38.4-38.4-38.4c-7.4,0-14.4,2.1-20.2,5.8c-1.1,0.7-2.2,1.5-3.3,2.3
		c-0.1,0-0.3,0-0.4,0c-2.3,0-4.1-1.8-4.1-4.1c0-0.4,0.1-0.8,0.2-1.1l0,0c1.3-1.1,2.8-2,4.2-2.9c6.9-4.2,15-6.7,23.6-6.7
		C854.6,398.8,874.9,419,874.9,444z"/>
	<path class="st2" d="M793.7,413.7"/>
</g>
<g id="Layer_3">
	<text transform="matrix(0.9306 0 0 1 802.0229 465.7154)" class="st3 st4">A</text>
	<rect x="811" y="450.8" width="13.1" height="4.4"/>
	<path d="M835.5,425.8h-14.1c-1.7,0-3.1-1.4-3.1-3.1v-0.4c0-1.7,1.4-3.1,3.1-3.1h14.1c1.7,0,3.1,1.4,3.1,3.1v0.4
		C838.5,424.4,837.1,425.8,835.5,425.8z"/>
	<path d="M846.6,455.2L846.6,455.2c-1.8,0-3.3-1.5-3.3-3.3v-29.4c0-1.8,1.5-3.3,3.3-3.3l0,0c1.8,0,3.3,1.5,3.3,3.3v29.4
		C849.9,453.8,848.4,455.2,846.6,455.2z"/>
	<path d="M846.6,437.2h6.6c1.8,0,3.4-1.5,3.4-3.4l0,0c0-1.9-1.5-3.4-3.4-3.4h-6.6c-1.8,0-3.4,1.5-3.4,3.4l0,0
		C843.2,435.7,844.8,437.2,846.6,437.2z"/>
	<path d="M835.2,434.6L835.2,434.6c-1.8,0-3.3-1.5-3.3-3.3v-8.7c0-1.8,1.5-3.3,3.3-3.3l0,0c1.8,0,3.3,1.5,3.3,3.3v8.7
		C838.5,433.1,837,434.6,835.2,434.6z"/>
	<path d="M828.7,440.7L828.7,440.7c-1.5-1.1-1.8-3.2-0.7-4.6l4.5-6.1c1.1-1.5,3.2-1.8,4.6-0.7l0,0c1.5,1.1,1.8,3.2,0.7,4.6l-4.5,6.1
		C832.3,441.4,830.2,441.7,828.7,440.7z"/>
</g>
</svg>
